<svg width="2002.8" height="589.62" version="1.1" viewBox="0 0 529.91 156" xml:space="preserve" xmlns="http://www.w3.org/2000/svg"><g transform="translate(156.45 295.87)"><path d="m-81.941-295.3c-9.571 0.10066-19.198 2.1267-28.453 6.1309-11.867 5.1342-22.697 13.891-30.889 24.976-8.1482 11.026-13.32 24.344-14.899 38.365-0.3618 3.2122-0.36245 12.835-1e-3 16.261 1.0024 9.5032 3.4776 17.924 7.8776 26.8 0.81155 1.6371 1.5451 2.9749 1.6304 2.9719s0.98847-1.2795 2.0071-2.8376c2.2666-3.4668 5.0003-6.9288 8.5499-10.828l2.6898-2.9549-1.1886-4.1414c-0.6538-2.2779-1.5586-6.187-2.0107-8.6868-0.75696-4.1851-0.81094-4.8598-0.67592-8.5142 0.22877-6.1923 1.673-14.015 3.6142-19.579 1.2332-3.5347 4.7032-10.466 6.8218-13.627 7.1825-10.714 16.944-18.118 29.091-22.066 5.1969-1.6891 8.8926-2.2996 14.952-2.4696 5.2933-0.14854 9.0987 0.14214 12.924 0.9865l2.2267 0.49144 1.5203-1.0542c1.9345-1.3419 4.322-2.4237 7.2683-3.2928 1.9232-0.56736 3.2439-0.73398 7.6574-0.96532 2.9334-0.15379 5.523-0.20672 5.7547-0.11782 0.36182 0.13884 0.42116 0.77913 0.42116 4.5356 0 2.4057 0.061 4.3739 0.13539 4.3739 0.07439 0 1.8306-0.98733 3.9026-2.1942 2.072-1.2068 4.6856-2.7137 5.8079-3.3486 1.1223-0.63495 1.98-1.2523 1.9063-1.3715s-1.5273-1.2655-3.2308-2.5476c-13.662-10.282-29.458-15.462-45.41-15.295zm75.557 64.716c-0.094202 4e-3 -0.58828 0.62288-1.0976 1.3756-4.8825 7.216-11.54 16.263-15.144 20.578l-2.7621 3.3073-1.1415 3.4396c-0.62776 1.8918-1.6656 4.7493-2.3058 6.35-6.5111 16.279-21.146 29.247-38.178 33.829-5.0802 1.3667-7.1172 1.6084-13.626 1.6164-6.3518 8e-3 -7.8438-0.15006-12.605-1.3353-5.4087-1.3463-12.079-4.2438-16.955-7.3649-1.2694-0.8126-2.4667-1.4774-2.6603-1.4774-0.32663 0-2.1999 2.3099-3.6644 4.5181-0.34515 0.52044-1.2102 1.8182-1.9224 2.8835s-2.1261 3.5375-3.1419 5.4937c-1.5591 3.0024-1.79 3.6117-1.4831 3.9093 1.1077 1.074 6.1718 4.1316 9.6237 5.8105 8.4252 4.0977 17.833 6.7419 26.723 7.5107 12.131 1.049 24.384-1.0699 36.106-6.2441 14.119-6.2316 26.514-17.24 34.345-30.502 4.3543-7.3741 7.0529-14.004 9.0434-22.219 1.8743-7.7355 2.5605-16.644 1.895-24.595-0.32632-3.8986-0.78283-6.8939-1.0495-6.8833zm-75.303 6.4699c-1.5424 3e-3 -3.0918 0.22004-4.1966 0.64958-2.001 0.77795-4.5461 2.73-5.6322 4.3196-4.7048 6.886-1.4969 16.191 6.4585 18.735 3.0555 0.97695 6.7767 0.45649 9.5746-1.3389 1.5646-1.004 3.7873-3.3647 4.5196-4.8002 1.4498-2.8418 1.6555-6.804 0.51056-9.8402-1.1983-3.1777-3.8222-5.806-7.0797-7.0921-1.0766-0.42505-2.6123-0.6357-4.1548-0.63252z" style="fill:#d0ab41"/><path d="m9.6081-295.87c-0.097164-0.0972-6.1816 3.302-13.121 7.3303-11.059 6.4198-20.262 11.748-25.003 14.476-8.8534 5.0941-9.6279 5.611-10.035 5.9955-1.0633 0.52365-1.5431 0.74846-1.5167 0.9064 6.2e-4 1e-3 -0.0954 0.055-0.09457 0.0563 0.0577 0.0934 3.7436 1.5302 8.1907 3.1931 4.4471 1.6629 8.0853 3.1494 8.0853 3.3032 0 0.17082-2.6447 4.6665-4.4209 7.7856-5.1354 8.7926-9.6276 15.145-14.141 21.571-6.307 8.9677-12.645 17.685-18.985 24.023-0.54857 0.54699-1.0401 0.91839-1.5828 1.4413-2.8003 2.6969-5.5864 5.2439-8.2842 7.291-0.93118 0.70659-1.779 1.2313-2.7125 1.8898-1.7496 1.2257-3.3178 2.3475-4.6571 3.1523-1.4489 0.87344-2.621 1.4981-2.9972 1.4981-0.38155 0-2.5751-1.2381-5.1175-2.7662-3.2436-1.9681-6.8075-4.4224-10.787-7.3158-1.1609-0.84641-1.951-1.3654-3.0437-2.1854-2.8289-2.1229-5.3961-3.9268-6.364-4.4865-0.18087-0.1169-0.29031-0.17932-0.3173-0.17932-0.0121 0-0.0262 1e-3 -0.0418 4e-3 -0.0101-2e-3 -0.0189-4e-3 -0.0258-4e-3 -0.68024 0-4.9516 2.4053-8.5034 4.7883-4.3557 2.9223-8.8921 6.734-13.043 10.776-0.11408 0.11171-0.22091 0.22981-0.33435 0.34209-3.3217 3.2645-6.4094 6.6572-8.8031 9.894-0.45262 0.61203-0.79794 1.3688-1.2413 2.0014-2.2017 3.1019-4.2216 6.3592-6.0585 9.771-2.8994 5.3306-5.4366 10.789-7.1117 16.006-1.9992 6.2264-4.1323 14.963-3.7522 15.368 0.0911 0.097 1.8322 0.10218 3.8695 0.0119 2.0373-0.0903 7.101-0.16432 11.253-0.16485l7.5479-1e-3 0.48886-1.9182c0.64832-2.5439 1.7432-5.634 2.912-8.6754 0.18081-0.47721 0.32996-0.98063 0.5178-1.4516 1.096-2.7255 2.3014-5.1978 3.4794-7.4776 0.44491-0.85669 0.85222-1.7513 1.3224-2.5802 0.78724-1.369 1.6082-2.708 2.4727-4.0091 0.50062-0.76421 1.0424-1.473 1.5658-2.2081 3.3337-4.6256 7.1372-8.8292 11.485-12.51 0.22766-0.19274 0.41486-0.36461 0.57981-0.50953 0.17552-0.1377 0.33371-0.25929 0.47129-0.36173 0.36886-0.21434 0.74255-0.18082 1.4351 0.17622 0.16447 0.09 0.76862 0.4857 1.0733 0.67076 0.82149 0.51096 1.6742 1.0714 3.4024 2.2242 6.3364 4.2265 11.282 7.1613 16.211 9.6201l4.4266 2.2081 2.7228-1.4015c8.8326-4.5475 17.526-10.525 26.22-17.553 0.56616-0.46002 1.1917-0.84679 1.7492-1.3126 0.05927-0.0495 0.12759-0.12116 0.18707-0.17105 0.59657-0.49543 1.1944-0.86437 1.7911-1.372 1.9712-1.677 5.1933-4.7427 8.4961-8.0248 1.2208-1.2131 2.4527-2.4559 3.6365-3.669 2.6345-2.6999 5.0308-5.2529 6.5381-7.0073 1.74-2.0252 3.5311-4.1088 3.9801-4.6302 0.44902-0.5214 2.7059-3.4486 5.0152-6.5045 1.2161-1.6093 2.3012-3.6682 3.5564-5.442 1.6438-2.299 3.1218-4.0598 4.2711-5.8017 2.5474-3.8611 4.8799-7.8363 7.0419-11.51 0.6599-1.1253 1.5986-2.2901 2.2014-3.3683 0.79154-1.4156 1.5007-2.5767 1.5761-2.5797 0.14905-6e-3 5.4285 4.3123 10.376 8.4873 1.7072 1.4408 3.18 2.6195 3.2732 2.6195 0.09319 0 0.09239-2.292-0.0021-5.0932-0.17146-5.0864-0.4347-16.39-0.9617-41.331-0.1288-6.0957-0.26398-11.289-0.33125-12.835-1.055e-4 -2e-3 1.052e-4 -2e-3 0-5e-3l-0.00672-0.4439-0.018604 0.0103c-0.00177-0.0157-0.00313-0.0251-0.00465-0.0284l-5.168e-4 -5.2e-4zm-93.222 0.60152c-2.0518 0.069-4.1013 0.35187-6.151 0.59944-0.07947 0.01-0.3281-0.0108-0.39946-5.1e-4 -0.11711 0.0169-0.21961 0.0545-0.33641 0.0718-6.7116 0.88109-13.39 2.6191-19.894 5.4333-0.58209 0.25184-1.1263 0.61557-1.7032 0.8847-0.0436 0.0203-0.0846 0.0462-0.12816 0.0667-3.1613 1.4828-6.217 3.2349-9.185 5.2069-0.40082 0.26605-0.79185 0.56431-1.1891 0.83922-2.5813 1.7882-5.0582 3.7329-7.4383 5.857-0.28301 0.2503-0.59042 0.43077-0.87178 0.68626-0.53639 0.48707-1.0183 1.032-1.5405 1.5348-1.0462 1.0143-2.0976 2.0053-3.0928 3.0815-1.6787 1.8151-3.2786 3.7049-4.779 5.6772-0.3044 0.39638-0.66316 0.73894-0.96067 1.1415-0.69435 0.93959-1.2385 1.985-1.8893 2.9569-0.61794 0.92872-1.2215 1.8627-1.8004 2.8174-0.93568 1.539-1.8545 3.0763-2.683 4.6814-0.4439 0.85714-0.80964 1.7527-1.2227 2.6257-1.2165 2.586-2.3143 5.2177-3.251 7.936-0.52625 1.5113-1.0084 3.0325-1.4428 4.5734-0.35471 1.2696-0.71843 2.5272-1.0118 3.8168-0.57636 2.5218-1.0576 5.0653-1.3787 7.6342-2e-3 0.0179 2e-3 0.0737 0 0.092-0.0532 0.41523-0.17272 0.81443-0.21963 1.2309-0.3618 3.2122-0.36248 12.835-1e-3 16.261 1.0024 9.5032 3.4776 17.924 7.8776 26.8 0.81155 1.6371 1.5451 2.9749 1.6304 2.9719 4.4e-4 -1e-5 0.01-0.0144 0.0103-0.0145 8e-5 -1e-5 2e-3 4e-3 2e-3 4e-3 7e-3 -7.9e-4 0.16811-0.25182 0.18913-0.2744 0.21817-0.22366 0.88929-1.1508 1.8056-2.5523 2.2666-3.4668 5.0003-6.9288 8.5499-10.828l2.6898-2.9549-1.1886-4.1419c-0.69022-2.4048-1.3958-6.5516-2.0826-10.233-0.41982-2.3449-1.032-4.4446-1.3115-6.7376-0.32315-2.6503-0.53844-5.177-0.61237-7.3732-0.0227-0.67467 0.0298-1.3658 0.0305-2.0464 8e-3 -1.6288 0.0493-3.2582 0.17983-4.887 0.0689-0.86072 0.17377-1.7224 0.27751-2.5849 0.17972-1.4985 0.41408-2.9902 0.69556-4.4757 0.15877-0.83818 0.30521-1.6774 0.49558-2.5104 0.51131-2.2288 1.0915-4.4445 1.8283-6.6099 0.93147-2.7614 2.083-5.4174 3.3528-7.9794 0.6142-1.2397 1.3419-2.4134 2.0345-3.6086 0.73461-1.2765 1.4573-2.5648 2.2624-3.7714 0.5714-0.84915 1.1576-1.6647 1.7482-2.4691 1.4554-1.9722 2.9448-3.9108 4.6044-5.6792 5.1207-5.4567 11.212-9.9428 18.269-13.453 0.0817-0.0406 0.16338-0.081 0.24547-0.12144 4.6081-2.2704 8.9038-3.8678 13.339-4.8963 4.4355-1.0286 9.0107-1.4882 14.177-1.4847 2.8296 2e-3 5.3919 0.13998 7.9168 0.44183s5.0124 0.76739 7.6936 1.4242c0.06723 0.0165 0.13422 0.0331 0.20102 0.0496 4.3628 1.0784 7.9424 2.2823 11.936 4.1274 2.6163 1.2152 5.4502 2.7247 8.8951 4.6984 0.39049 0.22528 0.78784 0.45634 1.1932 0.6935 0.13673 0.08 0.25589 0.14773 0.35863 0.20309 9.5e-4 5.1e-4 0.0011 5.5e-4 0.0021 1e-3l0.69763 0.40463-0.19637-0.22635v-5.1e-4c-0.0025-0.0435-0.09215-0.14585-0.25683-0.29611l-5.17e-4 -5.2e-4 -0.07545-0.0868c-0.29104-0.33566-1.8389-1.4791-3.4396-2.5409-1.9303-1.2804-3.9258-2.352-5.9154-3.4406-0.31212-0.17015-0.61666-0.37572-0.93018-0.54105-2.5348-1.3426-5.1139-2.5015-7.7256-3.5336-0.041-0.016-0.08041-0.0363-0.12144-0.0522-5.3599-2.1074-10.852-3.5303-16.418-4.3202-0.30982-0.0493-0.59167-0.13597-0.90382-0.18242-0.04425-7e-3 -0.20516 6e-3 -0.2527 0-3.7148-0.46504-7.4448-0.74091-11.188-0.61495zm32.991 21.151c-1.2747-0.0422-5.4921 0.41616-6.9975 0.79892-4.7742 1.2139-8.8257 4.4041-10.922 8.6005-2.1902 4.3837-2.1745 4.2207-2.1745 22.855v12.856l-0.01809 3.315 0.01809 0.0186v0.23048l1.4402 1.463c2.6305 2.6724 4.3958 6.54 4.8147 10.548l0.09508 0.90848v0.69401l0.06563-0.0677 0.01344 0.1292 1.1782-1.141c2.3135-2.24 7.0785-7.8182 9.8893-11.577l2.8577-3.8204 0.07545-5.9692c0.20447-16.154 0.21267-39.669 0.01395-39.791-0.04552-0.0281-0.16723-0.0446-0.34933-0.0506zm-27.767 20.77-0.99219 0.13281c-0.5457 0.0731-1.9447 0.26072-3.1089 0.41703-3.3525 0.45015-6.3171 1.2238-8.2589 2.1549-0.99184 0.47557-1.9847 1.219-2.927 2.0531-0.19217 0.15879-0.38127 0.32052-0.56172 0.48886-0.13183 0.12786-0.26086 0.2475-0.38861 0.37982-0.39006 0.39774-0.75091 0.8221-1.0862 1.2718-0.60759 0.77428-1.1542 1.5692-1.5353 2.3683-1.6595 3.4795-1.7787 4.6505-1.7787 17.452 0 6.2635 0.05125 11.388 0.11369 11.388 0.0051 0 0.01116-5e-3 0.0186-0.0134v4e-3l0.0021-6e-3c0.08558-0.10657 0.31198-0.74309 0.53227-1.5059 0.80985-2.8041 2.2051-5.0681 4.6178-7.4941 0.36027-0.36226 0.72288-0.68565 1.0862-1.0056 0.25431-0.22427 0.50704-0.42605 0.75758-0.62839 3.1434-2.4958 6.5103-3.5066 10.93-3.3063l2.5797 0.11679v-11.213c3.4e-5 -0.24581 0-0.49692 0-0.75344v-12.103zm-28.268 20.538c-0.30078-0.18589-6.5726 0.79118-9.0692 1.4128-5.1412 1.2802-8.9161 4.6462-10.662 9.5074-0.48463 1.3491-0.54787 2.3386-0.67542 10.551-0.0776 4.9843-0.10938 9.0622-0.0708 9.062 0.0386-1.6e-4 0.99108-0.73532 2.1167-1.6335 2.8336-2.2611 10.888-7.5542 13.727-9.0201 1.2935-0.66807 2.9153-1.3562 3.6039-1.5296l1.2521-0.31522v-8.9488c0-4.9218-0.0997-9.0109-0.22169-9.0863zm101.46 17.679c-0.02753 0.0384-0.084862 0.46297-0.17932 1.2118v5.2e-4c-1.0957 8.687-4.1269 17.929-8.3959 25.938-1.423 2.6696-2.9833 5.2021-4.6555 7.5313l-5.16e-4 5.2e-4c-12.058 16.796-30.224 27.796-50.267 30.439-1.886 0.24875-4.8002 0.37138-7.6858 0.36897-2.8856-2e-3 -5.7428-0.13009-7.5143-0.38189-2.4659-0.35052-4.8594-0.81367-7.1877-1.3932h-5.17e-4c-2.3277-0.57941-4.59-1.275-6.7944-2.0893-4.4094-1.629-8.5874-3.7342-12.593-6.3407-1.5469-1.007-3.0677-2.0886-4.5656-3.2463l-2.1167-1.6361-0.48885 0.60152c-0.76227 0.93758-2.97 4.761-4.4375 7.6853-0.63018 1.2558-0.95527 1.9622-1.064 2.39-7e-5 2.8e-4 -4.2e-4 1e-3 -5.1e-4 2e-3v5.2e-4l-0.18759 0.43356 0.31058 0.20722 0.0207 0.014c1.193 1.1042 6.1661 4.1004 9.5514 5.7469 2.3427 1.1394 4.7702 2.1366 7.2326 3.0422 0.063 0.0226 0.17697 0.0835 0.23823 0.10491 0.17779 0.0622 0.36181 0.0904 0.54002 0.15141 6.1582 2.1933 12.552 3.6795 18.712 4.2122 0.71574 0.0619 1.4141 7e-3 2.1265 0.0475 2.277 0.15268 3.9233 0.18035 5.4741 0.12299 3.5379-0.073 7.0505-0.33257 10.523-0.94568 0.61197-0.10804 1.1963-0.28598 1.803-0.40773 0.12306-0.0245 0.2577-0.061 0.38086-0.0863 3.1537-0.64904 6.2256-1.4932 9.2232-2.5053 0.06972-0.0231 0.12745-0.0304 0.1974-0.0537 0.06107-0.0204 0.1178-0.0503 0.1788-0.0708 2.185-0.75024 4.3194-1.5965 6.4105-2.5337 0.39473-0.17611 0.7932-0.34155 1.1844-0.52451 2.0208-0.94768 3.9848-1.9905 5.9066-3.1099 0.28328-0.16545 0.57475-0.315 0.85576-0.48421 8.9281-5.3585 16.749-12.508 22.983-21.301 0.70914-1.0002 1.3092-2.2678 1.9999-3.3636 1.0229-1.6092 2.0174-3.236 2.9321-4.931 2.371-4.4026 4.4805-8.9002 5.6994-12.865 0.4401-1.4316 0.69125-2.8661 1.0599-4.3134 0.30959-1.1715 0.59611-2.3074 0.85524-3.4794 0.28772-1.3475 0.55393-2.6084 0.76791-3.9124 0.45354-2.6522 0.78568-5.2124 0.8878-7.5293 0.00342-0.0817 0.028572-0.18871 0.031523-0.26975 0.020238-0.5558 0.036441-1.0108 0.047542-1.3715 0.025355-0.79687 0.02753-1.1448 0-1.1064z" style="fill:#22a19d"/><path d="m56.853-163.67c-0.63251-0.12213-1.5251-0.4411-1.9835-0.70882-1.0126-0.59139-2.0259-2.0311-2.0259-2.8785 0-0.52822 0.13262-0.62233 0.87704-0.62233 0.74215 0 0.94509 0.1427 1.3195 0.92785 0.53643 1.1249 1.8552 1.9802 3.0551 1.9816 2.2254 2e-3 3.8871-1.816 3.1923-3.4934-0.43652-1.0539-1.046-1.4053-4.0835-2.3548-2.9278-0.91518-3.9491-1.6981-4.2404-3.2506-0.23853-1.2715 0.44768-3.0986 1.4946-3.9795 2.4745-2.0822 6.8864-1.3098 8.3167 1.4559 0.57572 1.1133 0.48688 1.3047-0.60482 1.3029-0.81902-1e-3 -1.069-0.13665-1.4322-0.77503-1.437-2.5259-5.7777-1.8587-5.7777 0.88807 0 1.5184 0.78988 2.1643 3.7724 3.0847 3.2483 1.0024 4.2808 1.8482 4.5643 3.7391 0.10018 0.66808 0.10596 1.4548 0.01283 1.7482-0.68125 2.1464-3.6206 3.4824-6.4569 2.9347zm209.11 0.12469c-4.0006-0.98824-6.2555-3.8524-6.2555-7.9457 0-5.3795 5.1935-9.1199 10.092-7.2683 3.1644 1.1962 4.7897 3.5048 4.9768 7.0694 0.10061 1.9168 0.0336 2.3261-0.61922 3.7807-0.81708 1.8207-2.004 3.0083-3.7578 3.7601-1.214 0.5204-3.5091 0.83276-4.4362 0.60375zm2.8515-1.7044c1.2649-0.35128 2.7022-1.6048 3.4418-3.0018 0.81738-1.5438 0.80953-4.6061-0.0158-6.1665-1.9893-3.7612-6.2823-4.3245-9.1042-1.1947-2.2383 2.4826-2.0855 6.4023 0.34473 8.8429 1.6523 1.6594 3.2214 2.1066 5.3334 1.5201zm-234.94 0.95856c-1.0603-0.49364-1.5024-0.89151-1.9367-1.7429-0.68144-1.3357-0.53851-1.8456 0.51736-1.8456 0.5994 0 0.88848 0.1792 1.1738 0.72761 1.3253 2.5476 4.7183 2.8925 6.0628 0.61636 1.108-1.8756 0.2583-2.9118-3.2921-4.0149-1.751-0.54399-2.9561-1.0918-3.5512-1.6143-3.1948-2.8051-0.19226-7.5509 4.4308-7.0034 1.6323 0.19331 3.2664 1.0992 3.9353 2.1816 0.78431 1.269 0.68234 1.6986-0.40315 1.6986-0.74417 0-0.99391-0.14438-1.3113-0.75807-0.45115-0.87243-1.8491-1.6232-3.0225-1.6232-3.0263 0-4.0556 3.5398-1.4116 4.8548 0.39135 0.19464 1.4854 0.56486 2.4313 0.82269 3.4765 0.94767 4.4979 1.8996 4.4979 4.1921 0 3.4134-4.318 5.279-8.1208 3.5085zm12.619-7.0281v-7.6729h1.8521v15.346h-1.8521zm24.473 7.3591c-0.07111-0.19119-0.15959-3.3242-0.19662-6.9622l-0.06733-6.6146-1.9844-0.0309c-1.9367-0.0302-1.9864-0.0477-2.0681-0.7276l-0.08372-0.69666h10.618v0.65076c0 0.63249-0.06127 0.65291-2.1828 0.7276l-2.1828 0.0769-0.05149 6.8792-0.05149 6.8792-0.81022 0.0831c-0.49176 0.0504-0.86104-0.0536-0.93951-0.26459zm10.187-7.3591v-7.6729h8.2021v1.6162l-2.8443-0.0298c-1.5643-0.0164-2.9931-0.0229-3.175-0.0144-0.2415 0.0113-0.33073 0.72926-0.33073 2.6613v2.6458h5.8208v1.5875h-5.8208v5.2754l6.4823 0.1486 0.16744 1.4552h-8.5018zm12.7 0.016v-7.6889h1.0732c1.0269 0 1.0969 0.0542 1.6222 1.2568 1.6314 3.7349 3.4609 7.8381 4.2743 9.586l0.92097 1.9792 1.2923-2.773c0.71076-1.5251 2.0007-4.4101 2.8666-6.411l1.5743-3.638h1.9865v15.346h-1.8418l-0.0713-5.7452-0.0713-5.7452-2.3544 5.4144c-1.2949 2.9779-2.4751 5.569-2.6227 5.7579-0.14758 0.18893-0.51687 0.30799-0.82065 0.26459-0.60366-0.0863-1.6188-1.9902-4.1648-7.811-0.77803-1.7788-1.5059-3.2373-1.6175-3.2412-0.1116-4e-3 -0.17113 2.4636-0.13229 5.4832l0.07062 5.4901-1.9844 0.1642zm19.585 7.4745c3e-3 -0.11793 1.2334-3.5482 2.7337-7.6227l2.7279-7.4083 1.1098-0.0817c1.3157-0.0969 0.9044-0.88012 4.2805 8.1515 1.2783 3.4197 2.4072 6.4261 2.5085 6.6807 0.15631 0.3929 0.0293 0.46302-0.83865 0.46302-1.0193 0-1.025-6e-3 -1.6396-1.7198l-0.61678-1.7198h-7.0401l-0.65988 1.6536c-0.62424 1.5643-0.7115 1.6581-1.6155 1.7358-0.52559 0.0452-0.95302-0.0144-0.94983-0.13229zm9.4572-5.1754c-1.9356-5.3986-2.6967-7.3422-2.8749-7.3422-0.17913 0-0.97458 2.2797-2.4696 7.0776-0.18439 0.59176-0.16867 0.59531 2.6388 0.59531 2.1463 0 2.7958-0.0794 2.7057-0.33073zm15.143-2.3151v-7.6729h8.4667v0.77179c0 0.73356-0.0491 0.76674-0.99219 0.66991-0.5457-0.056-2.034-0.0308-3.3073 0.0561l-2.3151 0.15797v5.2234h5.5562v0.73747c0 0.70227-0.06 0.73786-1.2568 0.74557-0.69123 4e-3 -1.9414 0.0298-2.7781 0.0563l-1.5214 0.0482v6.8792h-1.8521zm12.435 0v-7.6729h1.8521v15.346h-1.8521zm6.8792 0v-7.6729h0.92317c0.90938 0 0.9825 0.0889 4.8977 5.9531 2.186 3.2742 4.0625 5.9532 4.1701 5.9534s0.16145-2.6788 0.11976-5.9531l-0.0758-5.9534h1.8714v15.346h-0.91716c-0.90323 0-0.97655-0.0903-4.8286-5.9454-2.1513-3.27-4.0008-5.9489-4.1099-5.9531-0.10914-4e-3 -0.19844 2.6712-0.19844 5.9454v5.9531h-1.8521zm15.875 7.5133c0-0.22327 4.5439-12.746 5.1595-14.22 0.39791-0.95232 0.465-0.99242 1.5309-0.91508l1.1148 0.0809 2.8392 7.5406c1.5616 4.1473 2.8415 7.5704 2.8443 7.6068 3e-3 0.0364-0.45811 0.0661-1.0242 0.0661-1.0282 0-1.03-2e-3 -1.6364-1.7198-0.58899-1.6684-0.63535-1.7207-1.5504-1.7511-2.4633-0.0817-5.7311 0.0875-5.954 0.30833-0.13652 0.13522-0.51226 0.87235-0.83496 1.638-0.53797 1.2765-0.66578 1.399-1.5377 1.4743-0.52304 0.0452-0.95097-4e-3 -0.95097-0.10944zm9.525-4.9959c0-0.43085-2.7546-7.5445-2.9215-7.5445-0.11237 0-0.7096 1.5776-1.3272 3.5057s-1.1772 3.6546-1.2436 3.8365c-0.0917 0.25138 0.55263 0.33073 2.6858 0.33073 1.5435 0 2.8064-0.0578 2.8064-0.12839zm7.6729-2.5015v-7.6889h2.0363l8.1502 12.25 0.071-6.1248 0.071-6.1249h1.8423v15.378l-0.99219-0.0821c-0.97808-0.081-1.0486-0.16678-4.9609-6.0352l-3.9688-5.9531-0.13229 5.9531-0.13229 5.9531-1.9844 0.1642zm20.45 6.8696c-2.5911-1.3104-3.8955-3.2564-4.212-6.2839-0.26184-2.5051 0.39702-4.3159 2.2361-6.1454 1.8341-1.8247 3.721-2.542 6.1154-2.3248 2.306 0.2091 4.8512 1.7184 5.7151 3.3891 0.53105 1.0269 0.52288 1.04-0.65295 1.04-0.8625 0-1.1406-0.1409-1.6273-0.82437-0.70237-0.98638-2.9235-2.0821-4.2115-2.0776-1.9873 7e-3 -4.2571 1.7093-5.1599 3.8702-0.85359 2.0429-0.25736 5.2862 1.2738 6.9289 0.93984 1.0083 2.419 1.6279 3.8862 1.6279 1.593 0 2.934-0.62338 4.2191-1.9612 0.73299-0.76308 1.1092-0.94922 1.9182-0.94922 1.1494 0 1.165 0.0277 0.56071 1.0015-1.4015 2.2586-3.2682 3.275-6.3012 3.4311-1.9587 0.1008-2.2393 0.0469-3.7597-0.72197zm14.74-6.8856v-7.6729h8.5018l-0.0837 0.72761-0.0837 0.7276-6.0854 0.0814-0.1508 5.3425h5.8394v0.66146c0 0.65217-0.0325 0.662-2.3151 0.70063-1.2733 0.0215-2.5532 0.0513-2.8443 0.0661-0.42559 0.0217-0.55506 0.26002-0.66146 1.2176-0.0728 0.65484-0.0919 1.8752-0.0426 2.712l0.0896 1.5214h6.303v1.5875h-8.4667zm12.965 0v-7.6729h1.8521v15.346h-1.8521zm6.8792-0.02v-7.6929l3.6586 0.0862c3.388 0.0798 3.7294 0.13473 4.6161 0.74306 1.8159 1.2459 2.5004 3.4272 1.6866 5.375-0.39769 0.95181-2.0931 2.567-2.6944 2.567-0.78261 0-0.70667 0.15116 3.2232 6.4162 0.0685 0.10914-0.40701 0.19843-1.0566 0.19843h-1.1811l-1.253-2.1828c-2.48-4.3205-2.3392-4.1672-3.8282-4.1672h-1.3192v6.35h-1.8521zm7.4092-0.99853c1.3963-1.3962 1.276-3.4638-0.26547-4.5663-0.63176-0.45184-1.6491-0.58003-4.1672-0.52509l-1.1245 0.0245v5.8208h2.4016c2.2875 0 2.4374-0.0358 3.1555-0.75394zm33.072 1.0237v-7.7278l3.7703 0.0963c4.2215 0.10782 5.4282 0.46128 7.0246 2.0577 1.6199 1.6199 2.0359 2.7576 2.0359 5.5685 0 2.8223-0.40841 3.9264-2.0259 5.4766-1.6647 1.5954-3.0977 2.0247-7.1669 2.147l-3.638 0.10938zm7.4337 5.6744c2.3839-0.8411 3.5187-2.6728 3.5187-5.6796 0-1.5036-0.13463-2.2408-0.55567-3.0427-1.2086-2.3019-2.7072-3.0427-6.1549-3.0427h-2.3898v5.909c0 3.25 0.0794 5.9884 0.17639 6.0854 0.34145 0.34145 4.2584 0.17519 5.4052-0.22943zm9.4996-5.6636v-7.6889h2.1248l-0.1404 15.214-1.9844 0.1642zm10.95 7.2291c-1.5915-0.56442-3.1418-2.0212-3.985-3.7446-0.61499-1.257-0.73863-1.849-0.73068-3.4989 0.0158-3.2743 1.4066-5.6148 4.2168-7.0961 1.809-0.95355 4.6426-0.98371 6.6885-0.0712 1.2822 0.57191 3.7625 2.8727 3.7625 3.4902 0 0.12978-0.46761 0.23596-1.0391 0.23596-0.78295 0-1.1628-0.15721-1.5408-0.6377-1.9773-2.5137-5.5945-2.9133-7.9166-0.87444-3.4147 2.9982-2.6866 8.9631 1.2973 10.628 3.1754 1.3268 6.9125-0.55481 7.7098-3.8818l0.17242-0.71943-6.4883-0.1486v-1.3229l8.4091-0.1461-0.14008 1.5448c-0.26488 2.9212-2.0839 5.3259-4.7808 6.3202-1.168 0.43061-4.3256 0.38746-5.6353-0.077zm14.45-7.245v-7.6729h1.8521v15.346h-1.8521zm10.319 0.79375v-6.8792h-4.4979v-1.5875h10.583v1.5875h-4.2333v13.758h-1.8521zm8.9958 6.8147c0-0.053 1.2394-3.4832 2.7541-7.6227l2.7541-7.5264 1.1852-0.0794c1.1797-0.0791 1.1871-0.0741 1.5868 1.0583 0.55287 1.5663 4.8435 13.2 5.0792 13.772 0.1632 0.39592 0.0365 0.46302-0.87451 0.46302-1.0374 0-1.0764-0.0333-1.4868-1.2687-0.80261-2.4164-0.83647-2.436-4.2002-2.4314-1.6289 2e-3 -3.0842 0.0915-3.234 0.19844-0.14985 0.10691-0.57171 0.90876-0.93748 1.7819-0.62783 1.4987-0.71987 1.5921-1.6458 1.6696-0.53942 0.0452-0.98076 0.0387-0.98076-0.0143zm9.4604-5.2934c-0.0666-0.1819-0.69299-1.9734-1.3919-3.981-0.69888-2.0077-1.3566-3.5555-1.4616-3.4396-0.10502 0.11589-0.69955 1.7585-1.3212 3.6503-0.62163 1.8918-1.185 3.5884-1.2519 3.7703-0.0926 0.25158 0.55674 0.33073 2.713 0.33073 2.156 0 2.8057-0.0792 2.7135-0.33073zm7.7375-2.3151v-7.6729l1.9844-4e-4 -0.1492 13.741 5.7055 0.1504 0.1674 1.4552h-7.7081zm-207.83-22.913c-8.9196-1.2847-15.035-9.0778-15.655-19.949-0.27757-4.87 0.50981-9.0544 2.4893-13.229 1.0194-2.15 1.5233-2.8422 3.4834-4.7859 3.657-3.6264 7.196-5.0689 12.46-5.0786 4.67-9e-3 7.8773 1.1804 10.958 4.0624l1.7221 1.611 0.152-5.1087 12.435 0.0258 0.1354 42.082h-12.703v-2.6458c0-1.4552-0.0711-2.6458-0.15802-2.6458-0.0869 0-0.69767 0.60022-1.3572 1.3338-2.6021 2.8942-5.7958 4.2356-10.391 4.3643-1.528 0.0428-3.1353 0.0264-3.5719-0.0365zm10.278-11.848c1.7718-0.86687 2.9939-2.2669 4.1976-4.8089 0.83312-1.7594 0.86993-1.9714 0.86993-5.0121 0-3.059-0.0329-3.2452-0.901-5.0974-1.8707-3.9915-5.9543-6.1685-10.027-5.3453-3.9405 0.79648-6.5619 3.9091-7.2087 8.5596-0.75452 5.4248 1.6757 10.381 5.9132 12.058 2.01 0.79581 5.1199 0.6419 7.1557-0.35413zm89.999 11.618c-4.2306-0.67301-7.5526-2.4976-10.752-5.9056-2.2724-2.4206-4.0627-5.6822-4.8955-8.9189-0.68579-2.6652-0.68516-9.7551 1e-3 -12.7 1.2783-5.4854 4.4941-9.8418 9.3845-12.713 2.4554-1.4417 4.3942-2.0703 7.717-2.5022 4.6794-0.60818 9.3592 0.0982 13.1 1.9772 4.7041 2.3628 7.801 6.0301 9.3592 11.083 0.30761 0.99759 0.55929 1.9203 0.55929 2.0505 0 0.13291-2.8982 0.23671-6.6092 0.23671h-6.6092l-0.51212-0.99219c-0.6761-1.3098-2.2963-2.8486-3.5488-3.3704-1.4553-0.6063-4.1002-0.56454-5.5755 0.088-1.6759 0.74133-3.4476 2.6493-4.1606 4.4807-0.81926 2.1042-1.0406 8.2204-0.38153 10.542 2.0838 7.3403 10.608 8.6758 13.921 2.1811l0.52189-1.023h13.013l-0.18314 0.99219c-0.53884 2.9192-2.6975 6.8665-5.0315 9.2004-4.6332 4.6332-11.551 6.5288-19.318 5.2933zm45.244-9e-3c-3.559-0.67251-6.7225-2.0891-9.4554-4.234-1.987-1.5596-3.4907-3.49-4.739-6.0838-3.0302-6.2964-3.2436-13.475-0.60401-20.321 1.1461-2.9721 2.3272-4.7393 4.6023-6.8855 3.2462-3.0623 6.8891-4.652 11.932-5.2069 7.5625-0.83217 14.764 1.7132 18.647 6.5905 1.6275 2.0446 2.8761 4.5101 3.7027 7.3117 0.5696 1.9304 0.72685 3.1144 0.84556 6.3666l0.14584 3.9952-1.1175 0.17869c-0.61462 0.0983-7.1498 0.17256-14.523 0.16506-7.3728-7e-3 -13.484-0.0105-13.58-7e-3 -0.27752 0.011 0.51782 3.0983 1.0775 4.1824 0.59372 1.1502 2.1948 2.738 3.3421 3.3144 1.3514 0.67897 3.8275 1.0128 5.3583 0.72253 2.3654-0.44858 3.9287-1.5114 5.1717-3.516l0.45116-0.7276h6.4762c5.4479 0 6.4762 0.0602 6.4762 0.37943 0 1.5683-3.4961 7.3926-5.4945 9.1536-4.6659 4.1114-11.926 5.9042-18.715 4.6213zm12.303-25.918c0-0.93752-1.1663-3.3654-2.1577-4.4917-1.5695-1.783-2.8089-2.3367-5.5406-2.4752-1.8848-0.0956-2.4838-0.0227-3.4971 0.42555-2.4226 1.0716-4.4176 3.5223-5.0477 6.2007l-0.17118 0.72761h8.2071c7.0253 0 8.2071-0.0557 8.2071-0.38695zm34.086 26.063c-5.9245-1.0835-11.535-4.7211-14.142-9.1686-2.6929-4.5952-3.6628-10.852-2.6142-16.865 2.1601-12.387 12.961-19.172 26.144-16.423 5.0667 1.0567 9.7562 4.4551 12.291 8.907 1.9668 3.4548 3.235 9.495 2.8334 13.494l-0.18081 1.8004-29.083-0.1454 0.16237 0.92604c0.56302 3.211 2.4118 5.7782 4.9598 6.8871 1.6909 0.73592 4.8216 0.83424 6.3084 0.1981 1.2632-0.54047 2.6743-1.8102 3.2972-2.9668l0.50808-0.94344h13.409l-0.17346 0.59531c-0.0954 0.32742-0.69177 1.6669-1.3253 2.9766-2.581 5.336-6.9064 8.9042-12.56 10.361-1.7381 0.44793-8.0927 0.68428-9.8343 0.36577zm11.686-26.295c0-1.091-1.5647-3.8137-2.8336-4.9306-2.0092-1.7685-5.3735-2.3657-8.098-1.4373-2.3349 0.79556-4.7302 3.6136-5.3204 6.2595l-0.16231 0.72761h16.414zm-329.14-0.9683v-26.988l16.536-0.0496c9.0951-0.0273 16.864-0.0571 17.264-0.0661l0.7276-0.0165 0.07173 5.2226 0.07173 5.2226-21.839 0.1382v11.377l16.801 0.1398v10.047h-16.933v21.96h-12.7zm41.01 6.6476c0-11.187 0.06834-20.682 0.15186-21.101l0.15186-0.76068 6.1242 0.0804c3.3683 0.0442 6.1872 0.14337 6.2643 0.22035 0.17202 0.17184 0.25047 36.994 0.0849 39.85l-0.1189 2.0505h-12.658zm21.433 1.356c8.72e-4 -10.441 0.07637-19.936 0.16778-21.101l0.1662-2.1167 4.264 0.0133c2.3452 7e-3 5.1272 0.0371 6.1822 0.0662l1.9182 0.0528v4.776l1.7175-1.457c3.1987-2.7136 6.4703-3.8482 11.096-3.8482 7.8352 0 13.664 4.862 15.226 12.7 0.5697 2.8587 0.70908 7.8396 0.60153 21.497l-0.0661 8.4005h-12.7l-6e-3 -12.634c-6e-3 -12.627-7e-3 -12.635-0.62422-14.136-0.8493-2.0649-1.9847-3.4108-3.6495-4.326-1.2319-0.67721-1.674-0.77332-3.5252-0.76637-3.6914 0.0139-6.001 1.5226-7.3087 4.7742-0.62331 1.5499-0.62607 1.6057-0.70744 14.322l-0.0817 12.766h-12.672zm100.01-2.2111c0-19.218 0.039-21.18 0.41851-21.034 0.23018 0.0883 3.0282 0.1606 6.2177 0.1606h5.7992v2.3812c0 1.3097 0.0368 2.3812 0.0818 2.3812s0.68519-0.58157 1.4226-1.2924c2.5744-2.4814 6.7576-3.9901 11.063-3.9901 4.5584 0 8.0247 1.3254 11.096 4.2429 2.1755 2.0665 3.255 3.9431 4.1746 7.2573 0.56809 2.0473 0.59021 2.5917 0.67459 16.603l0.0872 14.486h-12.725v-12.408c0-11.875-0.024-12.485-0.55839-14.221-1.1007-3.5753-4.225-5.6492-7.9953-5.3073-1.9471 0.17656-4.2041 1.2852-5.2446 2.5763-0.41442 0.51418-1.0214 1.6453-1.3489 2.5135-0.58261 1.5447-0.59712 1.8507-0.67356 14.213l-0.0781 12.634h-12.411zm-117.9-25.8c-1.5433-0.54734-3.1168-1.9916-3.9151-3.5934-1.6019-3.2146-0.31872-7.3749 2.7548-8.9316 1.4258-0.72214 3.6279-1.1528 5.0399-0.98553 5.2178 0.61797 7.8889 5.1935 5.7956 9.9275-1.1922 2.6962-3.3795 4.0172-6.6022 3.9874-1.0914-0.0101-2.4743-0.19205-3.073-0.40441z" style="fill:#1c2f48"/><path d="m-11.805-233.17c-0.17616 0.28076-0.4085 0.74863-0.49816 0.8661-0.11108 0.14552-0.81325 1.1969-1.5601 2.3363-0.15679 0.23918-0.29339 0.41221-0.447 0.63149 0.87894-1.3141 1.6498-2.5037 2.5053-3.8339z" style="fill:#22a19d"/></g></svg>
